<svg width="18" height="15" viewBox="0 0 18 15" fill="none" xmlns="http://www.w3.org/2000/svg">
<path d="M8.43522 5.01611C8.89935 5.01611 9.34447 5.20049 9.67266 5.52868C10.0008 5.85686 10.1852 6.30198 10.1852 6.76611C10.1852 7.23024 10.0008 7.67536 9.67266 8.00355C9.34447 8.33174 8.89935 8.51611 8.43522 8.51611C7.97109 8.51611 7.52597 8.33174 7.19778 8.00355C6.8696 7.67536 6.68522 7.23024 6.68522 6.76611C6.68522 6.30198 6.8696 5.85686 7.19778 5.52868C7.52597 5.20049 7.97109 5.01611 8.43522 5.01611ZM8.43522 2.39111C11.3519 2.39111 13.8427 4.20528 14.8519 6.76611C13.8427 9.32695 11.3519 11.1411 8.43522 11.1411C5.51855 11.1411 3.02772 9.32695 2.01855 6.76611C3.02772 4.20528 5.51855 2.39111 8.43522 2.39111ZM3.29022 6.76611C3.7617 7.72879 4.49382 8.53988 5.40333 9.10718C6.31285 9.67447 7.36329 9.97522 8.43522 9.97522C9.50716 9.97522 10.5576 9.67447 11.4671 9.10718C12.3766 8.53988 13.1087 7.72879 13.5802 6.76611C13.1087 5.80343 12.3766 4.99234 11.4671 4.42505C10.5576 3.85775 9.50716 3.55701 8.43522 3.55701C7.36329 3.55701 6.31285 3.85775 5.40333 4.42505C4.49382 4.99234 3.7617 5.80343 3.29022 6.76611Z" fill="#7084FF"/>
<rect x="0.857178" y="11.4236" width="17" height="1" rx="0.5" transform="rotate(-33.6646 0.857178 11.4236)" fill="#7084FF"/>
</svg>
