<svg width="18" height="15" viewBox="0 0 18 15" fill="none" xmlns="http://www.w3.org/2000/svg">
<path d="M8.57129 5.625C9.06857 5.625 9.54548 5.82254 9.89712 6.17417C10.2487 6.52581 10.4463 7.00272 10.4463 7.5C10.4463 7.99728 10.2487 8.47419 9.89712 8.82583C9.54548 9.17746 9.06857 9.375 8.57129 9.375C8.07401 9.375 7.5971 9.17746 7.24546 8.82583C6.89383 8.47419 6.69629 7.99728 6.69629 7.5C6.69629 7.00272 6.89383 6.52581 7.24546 6.17417C7.5971 5.82254 8.07401 5.625 8.57129 5.625ZM8.57129 2.8125C11.6963 2.8125 14.365 4.75625 15.4463 7.5C14.365 10.2438 11.6963 12.1875 8.57129 12.1875C5.44629 12.1875 2.77754 10.2438 1.69629 7.5C2.77754 4.75625 5.44629 2.8125 8.57129 2.8125ZM3.05879 7.5C3.56395 8.53144 4.34836 9.40047 5.32284 10.0083C6.29732 10.6161 7.42279 10.9383 8.57129 10.9383C9.71979 10.9383 10.8453 10.6161 11.8197 10.0083C12.7942 9.40047 13.5786 8.53144 14.0838 7.5C13.5786 6.46856 12.7942 5.59953 11.8197 4.99172C10.8453 4.3839 9.71979 4.06168 8.57129 4.06168C7.42279 4.06168 6.29732 4.3839 5.32284 4.99172C4.34836 5.59953 3.56395 6.46856 3.05879 7.5Z" fill="#7084FF"/>
</svg>
