<svg width="13" height="13" viewBox="0 0 13 13" fill="none" xmlns="http://www.w3.org/2000/svg">
<path d="M4.56279 8.40087L10.0435 3.11579C10.1728 2.99107 10.3237 2.92871 10.4961 2.92871C10.6686 2.92871 10.8195 2.99107 10.9488 3.11579C11.0782 3.24052 11.1428 3.38873 11.1428 3.56043C11.1428 3.73213 11.0782 3.88013 10.9488 4.00443L5.01547 9.74163C4.88614 9.86635 4.73524 9.92871 4.56279 9.92871C4.39035 9.92871 4.23945 9.86635 4.11012 9.74163L1.32937 7.06011C1.20003 6.93539 1.13795 6.78739 1.14312 6.61611C1.14829 6.44482 1.21576 6.29661 1.34553 6.17147C1.4753 6.04633 1.629 5.98397 1.80662 5.98439C1.98424 5.98481 2.13772 6.04717 2.26706 6.17147L4.56279 8.40087Z" fill="#30E618"/>
</svg>
