<svg width="13" height="15" viewBox="0 0 13 15" fill="none" xmlns="http://www.w3.org/2000/svg">
<path d="M13 7.07952V13.2835C13 13.7226 12.6356 14.079 12.1867 14.079H10.3077V10.9459H9.09004V14.079H7.11062V10.9459H5.89204V14.079H3.90996V10.9459H2.69493V14.079H0.813278C0.600158 14.0812 0.394883 13.9987 0.242438 13.8498C0.0899933 13.7008 0.00281222 13.4975 0 13.2844V7.07952H13ZM7.31328 1.96159e-06C7.52811 -0.000470328 7.73435 0.0843588 7.88667 0.235853C8.039 0.387346 8.12496 0.593113 8.12567 0.807947V3.96151H12.1876C12.2941 3.96116 12.3996 3.98181 12.4981 4.02229C12.5966 4.06277 12.6861 4.12228 12.7616 4.19741C12.837 4.27254 12.8969 4.36182 12.9379 4.46013C12.9788 4.55844 12.9999 4.66386 13 4.77034V6.07959H0.000888764V4.76945C0.0011218 4.66304 0.0223262 4.55772 0.0632898 4.45952C0.104253 4.36131 0.164173 4.27213 0.239622 4.1971C0.315071 4.12206 0.40457 4.06263 0.503002 4.02221C0.601434 3.98178 0.706869 3.96116 0.813278 3.96151H4.87522V0.808835C4.87545 0.702426 4.89666 0.597106 4.93762 0.498897C4.97859 0.400688 5.03851 0.311517 5.11395 0.23648C5.1894 0.161444 5.2789 0.102015 5.37733 0.0615907C5.47577 0.0211665 5.5812 0.000540054 5.68761 0.000890725H7.31417L7.31328 1.96159e-06Z" fill="#7084FF"/>
</svg>
