<svg width="13" height="13" viewBox="0 0 13 13" fill="none" xmlns="http://www.w3.org/2000/svg">
<path d="M8.16383 1.07129H6.07776C5.13276 1.07129 4.38383 1.07129 3.7983 1.15057C3.19508 1.232 2.70705 1.40343 2.3224 1.78968C1.93723 2.17593 1.76633 2.66611 1.68544 3.27147C1.60669 3.85968 1.60669 4.61129 1.60669 5.56004V8.68754C1.60669 9.4954 2.09955 10.1875 2.79973 10.4779C2.76383 9.9904 2.76383 9.30736 2.76383 8.73843V6.0545C2.76383 5.36825 2.76383 4.77629 2.82705 4.30272C2.89508 3.79486 3.0483 3.30843 3.44151 2.91361C3.83473 2.51879 4.31955 2.36504 4.82526 2.29647C5.29669 2.23325 5.88598 2.23325 6.57008 2.23325H8.21473C8.8983 2.23325 9.48651 2.23325 9.95848 2.29647C9.8171 1.93555 9.57026 1.62561 9.25013 1.40707C8.93 1.18852 8.55145 1.07151 8.16383 1.07129Z" fill="#7084FF"/>
<path d="M3.53589 6.1056C3.53589 4.64525 3.53589 3.91507 3.98803 3.46132C4.43964 3.00757 5.1666 3.00757 6.6216 3.00757H8.16446C9.61892 3.00757 10.3464 3.00757 10.7986 3.46132C11.2507 3.91507 11.2502 4.64525 11.2502 6.1056V8.68775C11.2502 10.1481 11.2502 10.8783 10.7986 11.332C10.3464 11.7858 9.61892 11.7858 8.16446 11.7858H6.6216C5.16714 11.7858 4.43964 11.7858 3.98803 11.332C3.53589 10.8783 3.53589 10.1481 3.53589 8.68775V6.1056Z" fill="#7084FF"/>
</svg>
