<svg width="17" height="17" viewBox="0 0 17 17" fill="none" xmlns="http://www.w3.org/2000/svg">
<path d="M8.5 0C3.80508 0 0 3.80508 0 8.5C0 13.1949 3.80508 17 8.5 17C13.1949 17 17 13.1949 17 8.5C17 3.80508 13.1949 0 8.5 0ZM2.125 8.5C2.125 4.97715 4.98047 2.125 8.5 2.125C9.89785 2.125 11.1895 2.57988 12.2387 3.34355L3.34355 12.2387C2.57988 11.1895 2.125 9.89785 2.125 8.5ZM8.5 14.875C7.10215 14.875 5.81055 14.4201 4.76133 13.6564L13.6564 4.76133C14.4201 5.81387 14.875 7.10215 14.875 8.5C14.875 12.0229 12.0195 14.875 8.5 14.875Z" fill="#F82E2E"/>
</svg>
